<svg width="380" height="251" xmlns="http://www.w3.org/2000/svg" xmlns:xlink="http://www.w3.org/1999/xlink" xml:space="preserve" overflow="hidden"><defs><filter id="fx0" x="-10%" y="-10%" width="120%" height="120%" filterUnits="userSpaceOnUse" primitiveUnits="userSpaceOnUse"><feComponentTransfer color-interpolation-filters="sRGB"><feFuncR type="discrete" tableValues="0 0"/><feFuncG type="discrete" tableValues="0 0"/><feFuncB type="discrete" tableValues="0 0"/><feFuncA type="linear" slope="0.2" intercept="0"/></feComponentTransfer><feGaussianBlur stdDeviation="1.77778 1.77778"/></filter><clipPath id="clip1"><rect x="-64" y="0" width="380" height="251"/></clipPath><clipPath id="clip2"><rect x="77" y="7" width="225" height="55"/></clipPath><clipPath id="clip3"><rect x="0" y="0" width="384" height="70"/></clipPath><clipPath id="clip4"><path d="M7.49396 6.65 287.494 6.65 376.667 63 96.6667 63Z" fill-rule="evenodd" clip-rule="evenodd"/></clipPath><clipPath id="clip5"><path d="M7.49396 6.65 287.494 6.65 376.667 63 96.6667 63Z" fill-rule="evenodd" clip-rule="evenodd"/></clipPath><clipPath id="clip6"><path d="M7.49396 6.65 287.494 6.65 376.667 63 96.6667 63Z" fill-rule="evenodd" clip-rule="evenodd"/></clipPath></defs><g clip-path="url(#clip1)" transform="translate(64 0)"><g clip-path="url(#clip2)" filter="url(#fx0)" transform="translate(-66 182)"><g clip-path="url(#clip3)"><g clip-path="url(#clip4)"><g clip-path="url(#clip5)"><g clip-path="url(#clip6)"><path d="M52.6638 9.06296C52.1466 8.67268 51.411 8.7751 51.0202 9.29188L47.0933 14.4749C46.4482 14.2852 45.7734 14.2175 45.1035 14.2753L41.3586 9.3271C40.9842 8.79776 40.2516 8.67215 39.7222 9.04652 39.1928 9.4209 39.0672 10.1535 39.4416 10.6828 39.4558 10.7029 39.4706 10.7226 39.4861 10.7417L42.7379 15.0325C41.9738 15.4944 41.3332 16.1349 40.8714 16.8991 40.2239 16.403 39.3937 16.2104 38.5939 16.3708 37.6284 16.6817 36.8777 17.4478 36.5864 18.4194 35.8912 17.6053 34.8296 17.2006 33.7689 17.3452 33.2514 17.467 32.7854 17.7483 32.4365 18.1494 31.3506 16.4824 29.8479 15.5491 28.492 15.9013 27.5512 16.2088 26.8194 16.9559 26.5315 17.9029 25.3575 16.6056 23.8607 15.9541 22.6104 16.3415 21.2604 16.7583 20.5384 18.2727 20.6088 20.151 19.0592 19.0533 17.4098 18.7422 16.2945 19.5112 15.1793 20.2801 14.8799 21.9941 15.3965 23.8724 13.7236 23.1152 12.0976 23.1152 11.1585 24.0427 10.3308 24.8644 10.2134 26.2204 10.6948 27.6819 9.70136 27.4034 8.63452 27.6415 7.85378 28.3159 6.94396 29.214 6.88527 30.7577 7.54855 32.3778 6.67395 32.9647 6.29829 34.1387 6.37459 35.4829 6.13182 35.4731 5.88893 35.4969 5.65261 35.5533 3.83297 35.9994 3.44557 38.4295 4.79562 40.9888 6.05176 43.3719 8.36445 45.0154 10.1489 44.8687L12.0507 46.4183C12.5499 46.8332 13.291 46.7649 13.706 46.2657 14.1209 45.7665 14.0526 45.0254 13.5533 44.6104L12.0448 43.3836C12.1016 43.2192 12.1448 43.0503 12.1739 42.8788 12.7982 43.0376 13.4577 42.9818 14.0464 42.7203L15.0032 43.4952C15.5056 43.9052 16.2455 43.8303 16.6555 43.3279 17.0656 42.8254 16.9907 42.0856 16.4882 41.6755L15.4258 40.8127C15.6132 39.7666 15.5221 38.6897 15.1617 37.6899 15.5289 37.6219 15.8772 37.4758 16.183 37.2614L17.357 38.2123C17.8391 38.6458 18.5814 38.6064 19.0148 38.1243 19.4484 37.6422 19.4089 36.8999 18.9268 36.4664 18.8979 36.4403 18.8676 36.4158 18.8362 36.3927L17.1985 35.0485C17.1918 34.4816 17.0968 33.9192 16.9167 33.3815 17.5864 33.5361 18.286 33.4995 18.9359 33.2758L19.6521 34.2678C19.8725 34.5734 20.2262 34.7546 20.603 34.755 20.8496 34.7547 21.0899 34.6766 21.2897 34.532 21.8195 34.1582 21.9459 33.4257 21.5721 32.896 21.5661 32.8875 21.56 32.8791 21.5539 32.8708L20.4504 31.3447C20.5361 30.7979 20.5142 30.2396 20.3858 29.7011 20.9595 29.929 21.5795 30.0155 22.1937 29.9535L23.1739 31.3095C23.3943 31.615 23.7481 31.7962 24.1248 31.7967 24.3715 31.7963 24.6118 31.7182 24.8116 31.5736 25.3363 31.194 25.4545 30.4612 25.0758 29.9359L24.0661 28.5741C24.3306 27.9605 24.4415 27.2915 24.389 26.6254 24.6602 26.7589 24.9458 26.8613 25.2401 26.9306L26.0149 28.9968C26.2418 29.6062 26.9199 29.9163 27.5293 29.6894 28.1388 29.4625 28.4489 28.7845 28.222 28.175L27.588 26.4141C27.7359 26.2857 27.8697 26.1421 27.9872 25.9856 28.4889 26.6777 29.16 27.2294 29.9359 27.588L30.0299 28.7972C30.0789 29.4086 30.5904 29.8792 31.2038 29.8772L31.2977 29.8772C31.9442 29.8273 32.4278 29.2628 32.3779 28.6164 32.3778 28.6161 32.3778 28.6156 32.3778 28.6152L32.2839 27.4119C32.4119 27.3228 32.5335 27.2247 32.6478 27.1184 33.2354 28.1838 34.2209 28.9731 35.389 29.3137L35.7705 30.7166C35.9823 31.3294 36.6508 31.6544 37.2635 31.4427 37.8087 31.2542 38.1362 30.6977 38.0363 30.1296L37.6254 28.6094C38.0214 28.1863 38.3235 27.6842 38.5117 27.136 39.0737 27.7508 39.8225 28.1633 40.6424 28.31L40.8714 29.484C40.9797 30.0441 41.4749 30.4453 42.0453 30.4349 42.1215 30.4406 42.198 30.4406 42.2742 30.4349 42.9106 30.311 43.3261 29.6946 43.2022 29.0582 43.202 29.0573 43.2018 29.0563 43.2017 29.0555L42.8495 27.3884C43.407 26.6683 43.758 25.81 43.865 24.9055 46.7302 25.8435 49.8133 24.2811 50.7513 21.4159 51.2436 19.9119 51.0591 18.2682 50.2454 16.9109 49.9594 16.4253 49.5966 15.9892 49.1712 15.6195L52.8927 10.7065C53.283 10.1894 53.1805 9.45377 52.6638 9.06296Z" stroke="#FFFFFF" stroke-width="0.401068" transform="matrix(4.96894 0 1.58248 1 73.494 -175.35)"/></g></g></g></g></g><g><g><g><path d="M228.973 39.4042C226.725 37.7073 223.526 38.1526 221.827 40.3995L204.754 62.9344C201.949 62.1095 199.015 61.8153 196.102 62.0667L179.82 40.5526C178.192 38.2511 175.007 37.705 172.705 39.3327 170.404 40.9604 169.857 44.1457 171.485 46.4471 171.547 46.5344 171.612 46.6199 171.679 46.7031L185.817 65.3589C182.495 67.3668 179.71 70.1519 177.702 73.4745 174.886 71.3172 171.277 70.4799 167.799 71.1776 163.602 72.5292 160.338 75.8599 159.071 80.0844 156.049 76.5449 151.433 74.7852 146.821 75.4141 144.571 75.9434 142.545 77.1666 141.028 78.9104 136.307 71.6625 129.773 67.6047 123.878 69.1359 119.788 70.473 116.606 73.7213 115.354 77.8385 110.25 72.1984 103.742 69.3656 98.3063 71.05 92.4365 72.862 89.2974 79.4464 89.6036 87.613 82.8661 82.8406 75.6948 81.488 70.8458 84.8313 65.9969 88.1745 64.6953 95.6266 66.9411 103.793 59.6677 100.501 52.5984 100.501 48.5151 104.533 44.9167 108.106 44.4062 114.002 46.499 120.356 42.1798 119.145 37.5414 120.18 34.1469 123.113 30.1911 127.017 29.9359 133.729 32.8198 140.773 29.0172 143.325 27.3839 148.429 27.7156 154.273 26.6601 154.231 25.604 154.334 24.5766 154.58 16.6651 156.519 14.9807 167.085 20.8505 178.212 26.312 188.573 36.3672 195.719 44.1255 195.081L52.3943 201.819C54.5648 203.623 57.7871 203.326 59.5911 201.155 61.3952 198.985 61.0981 195.762 58.9276 193.958L52.3687 188.624C52.6158 187.91 52.8036 187.175 52.9302 186.43 55.6443 187.12 58.5119 186.877 61.0714 185.741L65.2312 189.109C67.4158 190.892 70.6325 190.567 72.4154 188.382 74.1982 186.197 73.8726 182.981 71.688 181.198L67.0687 177.446C67.8836 172.898 67.4875 168.216 65.9203 163.869 67.5169 163.573 69.0313 162.938 70.3609 162.006L75.4651 166.141C77.5614 168.025 80.7885 167.854 82.6732 165.758 84.5582 163.662 84.3867 160.434 82.2904 158.549 82.1646 158.436 82.0329 158.329 81.8964 158.229L74.776 152.385C74.7469 149.92 74.3338 147.475 73.551 145.137 76.4627 145.809 79.5045 145.65 82.3302 144.678L85.4437 148.991C86.4021 150.319 87.9399 151.107 89.5781 151.109 90.6505 151.107 91.6953 150.768 92.5641 150.139 94.8673 148.514 95.417 145.329 93.7916 143.026 93.7658 142.989 93.7393 142.953 93.7125 142.917L88.9146 136.281C89.2872 133.904 89.192 131.476 88.6339 129.135 91.1283 130.126 93.824 130.502 96.4943 130.233L100.756 136.128C101.715 137.457 103.252 138.245 104.891 138.246 105.963 138.245 107.008 137.905 107.877 137.277 110.158 135.626 110.672 132.44 109.025 130.156L104.635 124.235C105.785 121.567 106.267 118.659 106.039 115.762 107.218 116.343 108.46 116.788 109.74 117.09L113.108 126.073C114.095 128.723 117.043 130.071 119.693 129.084 122.343 128.098 123.691 125.15 122.704 122.5L119.948 114.844C120.591 114.286 121.172 113.661 121.683 112.981 123.865 115.99 126.782 118.389 130.156 119.948L130.565 125.205C130.778 127.863 133.002 129.91 135.669 129.901L136.077 129.901C138.888 129.684 140.99 127.23 140.773 124.419 140.773 124.418 140.773 124.416 140.773 124.414L140.365 119.182C140.921 118.795 141.45 118.368 141.947 117.906 144.502 122.538 148.787 125.97 153.865 127.451L155.524 133.551C156.445 136.215 159.351 137.628 162.015 136.707 164.386 135.888 165.81 133.468 165.375 130.998L163.589 124.389C165.31 122.549 166.624 120.366 167.442 117.983 169.886 120.656 173.141 122.449 176.706 123.087L177.702 128.191C178.172 130.626 180.326 132.371 182.806 132.326 183.137 132.351 183.47 132.351 183.801 132.326 186.568 131.787 188.374 129.107 187.836 126.34 187.835 126.336 187.834 126.332 187.833 126.328L186.302 119.08C188.726 115.949 190.252 112.217 190.717 108.285 203.175 112.363 216.58 105.57 220.658 93.1125 222.798 86.5733 221.996 79.427 218.458 73.5255 217.215 71.4144 215.637 69.5182 213.788 67.9109L229.968 46.55C231.665 44.3016 231.22 41.1033 228.973 39.4042Z" stroke="#FFFFFF" stroke-width="1.74377" transform="scale(1.14286 1)"/></g></g></g></g></svg>